<svg xmlns="http://www.w3.org/2000/svg" version="1.1" xmlns:xlink="http://www.w3.org/1999/xlink" xmlns:svgjs="http://svgjs.dev/svgjs" width="1000" height="1000" viewBox="0 0 1000 1000"><rect width="1000" height="1000" fill="#ffffff"></rect><g transform="matrix(0.7,0,0,0.7,149.57575757575756,282.1265587044535)"><svg viewBox="0 0 396 247" data-background-color="#ffffff" preserveAspectRatio="xMidYMid meet" height="623" width="1000" xmlns="http://www.w3.org/2000/svg" xmlns:xlink="http://www.w3.org/1999/xlink"><g id="tight-bounds" transform="matrix(1,0,0,1,0.2400000000000091,-0.09999999999999432)"><svg viewBox="0 0 395.52 247.2" height="247.2" width="395.52"><rect width="395.52" height="247.2" fill="[object Object]" mask="url(&quot;#1cfe2ff8-e456-4f5b-9a4f-9c5494d5ffd0&quot;)" data-fill-palette-color="tertiary"></rect><rect width="395.52" height="247.2" fill="[object Object]" mask="url(&quot;#31a05813-312f-4f2d-85d6-5505221ddae3&quot;)" data-fill-palette-color="accent"></rect><rect width="395.52" height="247.2" fill="[object Object]" mask="url(&quot;#df2caadc-b260-4a3e-b570-75f938225794&quot;)" data-fill-palette-color="primary"></rect><g><svg></svg></g><g><svg viewBox="0 0 395.52 247.2" height="247.2" width="395.52"><g transform="matrix(1,0,0,1,39.55199999999999,103.42040816326531)"><svg viewBox="0 0 316.416 40.35918367346938" height="40.35918367346938" width="316.416"><g><svg viewBox="0 0 316.416 40.35918367346938" height="40.35918367346938" width="316.416"><g><svg viewBox="0 0 316.416 40.35918367346938" height="40.35918367346938" width="316.416"><g><svg viewBox="0 0 316.416 40.35918367346938" height="40.35918367346938" width="316.416"><g id="textblocktransform"><svg viewBox="0 0 316.416 40.35918367346938" height="40.35918367346938" width="316.416" id="textblock"><g><svg viewBox="0 0 316.416 40.35918367346938" height="40.35918367346938" width="316.416"><g transform="matrix(1,0,0,1,0,0)"><svg width="316.416" viewBox="0.75 -36.25 382.16 48.75" height="40.35918367346938" data-palette-color="url(#5786f31d-9968-4840-ac13-aef9d125f902)"></svg></g></svg></g></svg></g></svg></g></svg></g></svg></g></svg></g><g mask="url(&quot;#f2255135-3806-4441-9ab9-6360827a984f&quot;)"><g transform="matrix(3.596942891930349, 0, 0, 3.596942891930349, 23.304672798486138, 1)"><svg xmlns="http://www.w3.org/2000/svg" xmlns:xlink="http://www.w3.org/1999/xlink" version="1.1" x="0" y="0" viewBox="1 15.472 97.002 68.16900000000001" enable-background="new 0 0 100 100" xml:space="preserve" height="68.16900000000001" width="97.002" class="icon-none" data-fill-palette-color="accent" id="none"></svg></g></g></svg></g><defs><mask id="f2255135-3806-4441-9ab9-6360827a984f"><rect width="640" height="400" fill="white"></rect><rect width="348.05760000000004" height="59.4148529632653" fill="black" y="93.89257351836734" x="23.731199999999973" id="transform-me"></rect></mask><linearGradient x1="0.054" x2="0.941" y1="0.5" y2="0.5" id="5786f31d-9968-4840-ac13-aef9d125f902"><stop stop-color="#0f3054" offset="0"></stop><stop stop-color="#3b8dcb" offset="0.498"></stop><stop stop-color="#0f3054" offset="1"></stop></linearGradient><linearGradient x1="0" x2="1" y1="0.578" y2="0.595" id="7469a0c8-e890-47e3-9fe5-a5844399699c"><stop stop-color="#dede50" offset="0"></stop><stop stop-color="#559c49" offset="1"></stop></linearGradient><linearGradient x1="0.054" x2="0.941" y1="0.5" y2="0.5" id="c8c9a482-06c6-464a-859b-763cb0a841fc"><stop stop-color="#0f3054" offset="0"></stop><stop stop-color="#3b8dcb" offset="0.498"></stop><stop stop-color="#0f3054" offset="1"></stop></linearGradient></defs><mask id="df2caadc-b260-4a3e-b570-75f938225794"><g id="SvgjsG1205"><svg viewBox="0 0 395.52 247.2" height="247.2" width="395.52"><g><svg></svg></g><g><svg viewBox="0 0 395.52 247.2" height="247.2" width="395.52"><g transform="matrix(1,0,0,1,39.55199999999999,103.42040816326531)"><svg viewBox="0 0 316.416 40.35918367346938" height="40.35918367346938" width="316.416"><g><svg viewBox="0 0 316.416 40.35918367346938" height="40.35918367346938" width="316.416"><g><svg viewBox="0 0 316.416 40.35918367346938" height="40.35918367346938" width="316.416"><g><svg viewBox="0 0 316.416 40.35918367346938" height="40.35918367346938" width="316.416"><g id="SvgjsG1204"><svg viewBox="0 0 316.416 40.35918367346938" height="40.35918367346938" width="316.416" id="SvgjsSvg1203"><g><svg viewBox="0 0 316.416 40.35918367346938" height="40.35918367346938" width="316.416"><g transform="matrix(1,0,0,1,0,0)"><svg width="316.416" viewBox="0.75 -36.25 382.16 48.75" height="40.35918367346938" data-palette-color="url(#5786f31d-9968-4840-ac13-aef9d125f902)"><path d="M10.8 0L0.75 0.05 0.8-0.65 3.4-1Q3.75-1.05 4-1.65L4-1.65 14.8-35 18.1-35 29.6-0.95 33.05-0.75Q33.05-0.7 33 0L33 0 23 0.05Q23-0.4 23.05-0.65L23.05-0.65 25.65-1Q26.05-1.05 26.05-1.6L26.05-1.6 23.3-9.75 7.7-9.75 5.05-1.05 10.85-0.75Q10.85-0.7 10.8 0L10.8 0ZM22.95-10.75L15.15-34.05 8-10.75 22.95-10.75ZM45.05 0L35 0.05 35.05-0.65 37.65-1Q38.15-1.05 38.25-1.65L38.25-1.65 38.3-1.65 38.3-33.25 38.25-33.25Q38.15-33.9 37.65-33.95L37.65-33.95 35.05-34.2 35-34.95 45.05-35Q45.05-34.95 45.1-34.25L45.1-34.25 41.7-33.95 41.7-0.95 45.1-0.75Q45.1-0.7 45.05 0L45.05 0ZM67.09-33.95L64.44-34.25 64.49-35 71.09-35 83.04-9.65 94.79-35 101.39-35Q101.39-34.9 101.44-34.65 101.49-34.4 101.44-34.25L101.44-34.25 98.79-33.95Q98.29-33.9 98.19-33.3L98.19-33.3 98.19-0.95 101.89-0.75Q101.89-0.7 101.84 0L101.84 0 91.79 0.05 91.84-0.65 94.44-1Q94.94-1.05 95.04-1.6L95.04-1.6 95.04-33.2 83.64-8.55 82.64-6.55 81.49-6.55 68.84-33.25 68.84-1.05 74.54-0.75Q74.54-0.7 74.49 0L74.49 0 64.44 0.05 64.49-0.65 67.09-1Q67.59-1.05 67.69-1.65L67.69-1.65 67.69-33.3Q67.59-33.9 67.09-33.95L67.09-33.95ZM119.64-1.9L119.64-1.9 119.49-1.9Q114.99 0.2 110.74 0.2L110.74 0.2Q104.09 0.2 103.69-5.05L103.69-5.05Q103.64-5.4 103.64-5.7L103.64-5.7Q103.64-9.55 108.69-10.85L108.69-10.85Q111.69-11.5 119.49-12.4L119.49-12.4 119.49-16.8Q119.49-18.9 118.99-20.4 118.49-21.9 117.89-22.63 117.29-23.35 116.34-23.75L116.34-23.75Q115.14-24.25 113.67-24.25 112.19-24.25 110.29-23.5L110.29-23.5Q107.54-22.35 105.39-20.6L105.39-20.6 105.19-16.7 104.24-16.45 104.24-22.5 104.74-22.7Q108.64-24.4 110.69-24.75 112.74-25.1 113.69-25.13 114.64-25.15 115.52-25.1 116.39-25.05 117.79-24.65 119.19-24.25 120.22-23.53 121.24-22.8 121.99-21.35 122.74-19.9 122.74-17.9L122.74-17.9 122.74-2.6Q122.74-1.05 123.54-1.05L123.54-1.05 126.59-0.9 126.54-0.15Q123.74 0.25 121.54 0.25L121.54 0.25Q120.94 0.2 120.29-0.38 119.64-0.95 119.64-1.9ZM111.64-0.6L111.64-0.6Q115.34-0.6 119.49-3.2L119.49-3.2 119.49-11.45Q111.99-11.2 110.07-10.58 108.14-9.95 107.42-8.63 106.69-7.3 106.69-6L106.69-6Q106.69-5.75 106.69-5.5L106.69-5.5Q106.84-2.9 108.24-1.75 109.64-0.6 111.64-0.6ZM139.39 12.45L128.84 12.5 128.89 11.8 131.49 11.45Q131.94 11.4 131.94 10.75L131.94 10.75 131.94-23.35Q131.84-23.75 131.64-23.75L131.64-23.75 128.59-23.85 128.64-24.55Q131.79-25 132.94-25 134.09-25 134.59-24.43 135.09-23.85 135.19-23.15L135.19-23.15Q138.34-25.45 141.89-25.45L141.89-25.45Q145.29-25.45 148.29-23.35L148.29-23.35Q149.89-22.2 150.86-19.75 151.84-17.3 151.84-13.8L151.84-13.8Q151.84-7.15 148.54-3.8L148.54-3.8Q144.79 0 138.84 0L138.84 0Q137.09 0 135.19-0.25L135.19-0.25 135.19 11.45 139.44 11.7Q139.39 12.4 139.39 12.45L139.39 12.45ZM135.19-22.15L135.19-22.15 135.19-1.3Q136.64-0.95 138.34-0.95L138.34-0.95Q143.24-0.95 145.91-4.28 148.59-7.6 148.59-13.55L148.59-13.55Q148.59-20.35 145.89-22.7L145.89-22.7Q143.79-24.55 141.19-24.55 138.59-24.55 135.19-22.15ZM186.68-34.3L186.68-34.3Q181.03-34.3 177.73-29.6 174.43-24.9 174.43-16L174.43-16Q174.43-5.2 179.38-2.05L179.38-2.05Q180.88-1.1 182.16-0.83 183.43-0.55 184.98-0.55L184.98-0.55Q189.93-0.55 195.33-1.75L195.33-1.75 195.48-1.05Q194.63-0.75 190.96-0.28 187.28 0.2 184.98 0.2 182.68 0.2 180.98-0.13 179.28-0.45 177.38-1.5 175.48-2.55 174.16-4.28 172.83-6 171.93-9 171.03-12 171.03-16L171.03-16Q171.03-24.85 175.08-29.8L175.08-29.8Q179.33-35 186.68-35L186.68-35Q188.93-35 191.56-34.58 194.18-34.15 195.28-33.75L195.28-33.75 195.88-26.55 194.93-26.2 194.28-31.55Q190.23-34.3 186.68-34.3ZM208.71 0.2Q203.48 0.2 200.26-2.8 197.03-5.8 197.03-11.98 197.03-18.15 200.46-21.68 203.88-25.2 209.08-25.2 214.28-25.2 217.53-22.2 220.78-19.2 220.78-13.03 220.78-6.85 217.36-3.33 213.93 0.2 208.71 0.2ZM209.03-24.3Q205.28-24.3 202.78-21.05 200.28-17.8 200.28-12.23 200.28-6.65 202.66-3.68 205.03-0.7 208.78-0.7 212.53-0.7 215.03-3.95 217.53-7.2 217.53-12.75 217.53-18.3 215.16-21.3 212.78-24.3 209.03-24.3ZM233.83 0L223.78 0.05 223.83-0.65 226.43-1Q226.88-1.05 226.88-1.7L226.88-1.7 226.88-23.35Q226.78-23.75 226.58-23.75L226.58-23.75 223.53-23.85 223.58-24.55Q226.73-25 227.83-25L227.83-25Q229.83-25 230.08-23.25L230.08-23.25 230.13-23.25 230.13-22.2Q234.23-25 237.98-25.15L237.98-25.15Q241.63-25.15 243.53-23.7L243.53-23.7Q244.38-23.05 245.05-21.68 245.73-20.3 245.73-18.4L245.73-18.4 245.73-1 249.48-0.75Q249.48-0.7 249.43 0L249.43 0 239.43 0.05Q239.43-0.4 239.48-0.65L239.48-0.65 242.08-1Q242.48-1.05 242.48-1.7L242.48-1.7 242.48-17.15Q242.48-19.15 241.95-20.55 241.43-21.95 240.78-22.6 240.13-23.25 239.18-23.6L239.18-23.6Q238.08-24 236.88-24L236.88-24Q233.88-23.95 230.13-21.65L230.13-21.65 230.13-1 233.88-0.75Q233.88-0.7 233.83 0L233.83 0ZM264.53-24.3L264.53-24.3Q260.28-24.3 257.65-20.98 255.03-17.65 255.03-11.55L255.03-11.55Q255.03-0.7 263.28-0.7L263.28-0.7Q266.53-0.7 268.83-1.33 271.13-1.95 271.33-2.1L271.33-2.1 271.68-1.55Q270.53-0.8 267.88-0.3 265.23 0.2 263.08 0.2 260.93 0.2 259.18-0.25 257.43-0.7 255.65-1.85 253.88-3 252.83-5.48 251.78-7.95 251.78-11.5L251.78-11.5Q251.78-18.05 255.13-21.4L255.13-21.4Q258.88-25.25 264.58-25.25L264.58-25.25Q266.38-25.25 268.4-24.78 270.43-24.3 271.53-23.3L271.53-23.3 271.53-16.75 270.58-16.4 270.33-21.65Q269.23-22.8 267.65-23.55 266.08-24.3 264.53-24.3ZM281.97-22.95L281.97-22.95 281.97-1 285.72-0.75Q285.72-0.7 285.67 0L285.67 0 275.67 0.05Q275.67-0.4 275.72-0.65L275.72-0.65 278.32-1Q278.62-1 278.72-1.45L278.72-1.45 278.72-23.4Q278.62-23.75 278.42-23.75L278.42-23.75 275.42-23.85 275.47-24.55Q278.17-25 279.57-25 280.97-25 281.47-24.35 281.97-23.7 281.97-22.95ZM280.27-31.7Q279.27-31.7 278.72-32.33 278.17-32.95 278.17-33.98 278.17-35 278.75-35.63 279.32-36.25 280.32-36.25 281.32-36.25 281.95-35.63 282.57-35 282.57-33.93 282.57-32.85 281.92-32.27 281.27-31.7 280.27-31.7ZM293.72-11.5L293.72-11.5Q293.72-0.7 302.12-0.7L302.12-0.7Q304.32-0.7 306.82-1.18 309.32-1.65 310.02-2.05L310.02-2.05 310.37-1.55Q309.22-0.8 306.6-0.3 303.97 0.2 301.8 0.2 299.62 0.2 297.9-0.25 296.17-0.7 294.37-1.85 292.57-3 291.52-5.45 290.47-7.9 290.47-11.45L290.47-11.45Q290.47-18.05 293.87-21.55L293.87-21.55Q297.42-25.2 302.12-25.2 306.82-25.2 309.3-22.6 311.77-20 311.77-15.3L311.77-15.3Q311.77-14.3 311.62-13.15L311.62-13.15 293.77-13.15Q293.72-12.6 293.72-11.5ZM308.82-15.65L308.82-15.65Q308.82-19.4 307.17-21.78 305.52-24.15 302.67-24.15L302.67-24.15Q298.97-24.15 296.42-20.9L296.42-20.9Q294.37-18.35 293.87-14.1L293.87-14.1 308.77-14.1Q308.82-14.65 308.82-15.65ZM321.57-22.95L321.57-22.95 321.57-18.95Q325.52-24.75 329.32-24.85L329.32-24.85Q329.62-24.85 329.92-24.85L329.92-24.85 332.72-24.5 331.42-21.5Q330.47-22.45 328.97-22.45L328.97-22.45Q325.32-22.4 321.57-17.6L321.57-17.6 321.57-1 325.82-0.75Q325.82-0.7 325.77 0L325.77 0 315.27 0.05Q315.27-0.4 315.32-0.65L315.32-0.65 317.92-1Q318.32-1.05 318.32-1.7L318.32-1.7 318.32-23.4Q318.22-23.75 318.02-23.75L318.02-23.75 315.02-23.85 315.07-24.55Q317.77-25 319.17-25 320.57-25 321.07-24.35 321.57-23.7 321.57-22.95ZM334.87 5.15L334.87 5.15Q334.87 0.45 340.57-2.9L340.57-2.9Q338.12-4.25 338.12-6.33 338.12-8.4 340.12-9.55L340.12-9.55Q336.22-11.3 336.22-16.95L336.22-16.95Q336.22-20.8 339.12-23 342.02-25.2 346.52-25.2L346.52-25.2Q348.62-25.2 350.52-24.7L350.52-24.7 358.87-25.2 358.77-23.3 352.82-23.65Q356.07-21.55 356.07-17.3 356.07-13.05 353.32-10.8 350.57-8.55 346.22-8.55L346.22-8.55Q343.32-8.55 341.47-9.05L341.47-9.05Q340.62-8.1 340.62-6.85L340.62-6.85Q340.62-4.6 342.42-3.6L342.42-3.6Q344.37-2.45 349.32-1.6L349.32-1.6Q350.47-1.4 350.99-1.28 351.52-1.15 352.52-0.95 353.52-0.75 354.02-0.58 354.52-0.4 355.29-0.08 356.07 0.25 356.47 0.55 356.87 0.85 357.37 1.3 357.87 1.75 358.12 2.3L358.12 2.3Q358.67 3.6 358.67 5.33 358.67 7.05 357.62 8.6 356.57 10.15 354.72 10.95L354.72 10.95Q351.12 12.5 346.47 12.5L346.47 12.5Q340.32 12.5 337.59 10.33 334.87 8.15 334.87 5.15ZM341.37-2.5L341.37-2.5Q338.12 1.05 338.12 4.45 338.12 7.85 340.09 9.73 342.07 11.6 346.12 11.6 350.17 11.6 352.79 10.05 355.42 8.5 355.42 5.1L355.42 5.1Q355.42 2.4 353.74 1.15 352.07-0.1 349.02-0.7L349.02-0.7Q342.87-1.85 341.37-2.5ZM346.37-24.55Q343.27-24.55 341.37-22.63 339.47-20.7 339.47-16.85 339.47-13 340.92-11.1 342.37-9.2 345.64-9.2 348.92-9.2 350.79-11.38 352.67-13.55 352.67-17.25L352.67-17.25Q352.67-24.55 346.37-24.55L346.37-24.55ZM364.86-11.5L364.86-11.5Q364.86-0.7 373.26-0.7L373.26-0.7Q375.46-0.7 377.96-1.18 380.46-1.65 381.16-2.05L381.16-2.05 381.51-1.55Q380.36-0.8 377.74-0.3 375.11 0.2 372.94 0.2 370.76 0.2 369.04-0.25 367.31-0.7 365.51-1.85 363.71-3 362.66-5.45 361.61-7.9 361.61-11.45L361.61-11.45Q361.61-18.05 365.01-21.55L365.01-21.55Q368.56-25.2 373.26-25.2 377.96-25.2 380.44-22.6 382.91-20 382.91-15.3L382.91-15.3Q382.91-14.3 382.76-13.15L382.76-13.15 364.91-13.15Q364.86-12.6 364.86-11.5ZM379.96-15.65L379.96-15.65Q379.96-19.4 378.31-21.78 376.66-24.15 373.81-24.15L373.81-24.15Q370.11-24.15 367.56-20.9L367.56-20.9Q365.51-18.35 365.01-14.1L365.01-14.1 379.91-14.1Q379.96-14.65 379.96-15.65Z" opacity="1" transform="matrix(1,0,0,1,0,0)" fill="white" class="undefined-text-0" id="SvgjsPath1202"></path></svg></g></svg></g></svg></g></svg></g></svg></g></svg></g></svg></g><g mask="url(&quot;#f2255135-3806-4441-9ab9-6360827a984f&quot;)"><g transform="matrix(3.596942891930349, 0, 0, 3.596942891930349, 23.304672798486138, 1)"><svg xmlns="http://www.w3.org/2000/svg" xmlns:xlink="http://www.w3.org/1999/xlink" version="1.1" x="0" y="0" viewBox="1 15.472 97.002 68.16900000000001" enable-background="new 0 0 100 100" xml:space="preserve" height="68.16900000000001" width="97.002" class="icon-none" data-fill-palette-color="accent" id="SvgjsSvg1201"></svg></g></g></svg></g><defs><mask id="SvgjsMask1200"></mask><linearGradient x1="0.054" x2="0.941" y1="0.5" y2="0.5" id="SvgjsLinearGradient1198"><stop stop-color="#0f3054" offset="0"></stop><stop stop-color="#3b8dcb" offset="0.498"></stop><stop stop-color="#0f3054" offset="1"></stop></linearGradient><mask></mask></defs></svg></g></mask><mask id="31a05813-312f-4f2d-85d6-5505221ddae3"><g id="SvgjsG1221"><svg viewBox="0 0 395.52 247.2" height="247.2" width="395.52"><g><svg></svg></g><g><svg viewBox="0 0 395.52 247.2" height="247.2" width="395.52"><g transform="matrix(1,0,0,1,39.55199999999999,103.42040816326531)"><svg viewBox="0 0 316.416 40.35918367346938" height="40.35918367346938" width="316.416"><g><svg viewBox="0 0 316.416 40.35918367346938" height="40.35918367346938" width="316.416"><g><svg viewBox="0 0 316.416 40.35918367346938" height="40.35918367346938" width="316.416"><g><svg viewBox="0 0 316.416 40.35918367346938" height="40.35918367346938" width="316.416"><g id="SvgjsG1220"><svg viewBox="0 0 316.416 40.35918367346938" height="40.35918367346938" width="316.416" id="SvgjsSvg1219"><g><svg viewBox="0 0 316.416 40.35918367346938" height="40.35918367346938" width="316.416"><g transform="matrix(1,0,0,1,0,0)"><svg width="316.416" viewBox="0.75 -36.25 382.16 48.75" height="40.35918367346938" data-palette-color="url(#5786f31d-9968-4840-ac13-aef9d125f902)"></svg></g></svg></g></svg></g></svg></g></svg></g></svg></g></svg></g><g mask="url(&quot;#f2255135-3806-4441-9ab9-6360827a984f&quot;)"><g transform="matrix(3.596942891930349, 0, 0, 3.596942891930349, 23.304672798486138, 1)"><svg xmlns="http://www.w3.org/2000/svg" xmlns:xlink="http://www.w3.org/1999/xlink" version="1.1" x="0" y="0" viewBox="1 15.472 97.002 68.16900000000001" enable-background="new 0 0 100 100" xml:space="preserve" height="68.16900000000001" width="97.002" class="icon-none" data-fill-palette-color="accent" id="SvgjsSvg1218"><g fill="white"><g fill="white"><polygon points="1,83.641 34.287,71.758 39.744,15.472 15.743,27.12   " fill="white"></polygon><polygon points="63.988,27.617 68.854,83.641 98.002,71.862 83.851,16.075   " fill="white"></polygon><polygon points="40.909,15.488 35.971,71.758 67.063,83.641 62.713,27.604   " fill="white"></polygon></g></g></svg></g></g></svg></g><defs><mask id="SvgjsMask1217"></mask><linearGradient x1="0.054" x2="0.941" y1="0.5" y2="0.5" id="SvgjsLinearGradient1215"><stop stop-color="#0f3054" offset="0"></stop><stop stop-color="#3b8dcb" offset="0.498"></stop><stop stop-color="#0f3054" offset="1"></stop></linearGradient><linearGradient x1="0" x2="1" y1="0.578" y2="0.595" id="SvgjsLinearGradient1214"><stop stop-color="#dede50" offset="0"></stop><stop stop-color="#559c49" offset="1"></stop></linearGradient><mask></mask></defs><mask id="SvgjsMask1213"><g id="SvgjsG1212"><svg viewBox="0 0 395.52 247.2" height="247.2" width="395.52"><g><svg></svg></g><g><svg viewBox="0 0 395.52 247.2" height="247.2" width="395.52"><g transform="matrix(1,0,0,1,39.55199999999999,103.42040816326531)"><svg viewBox="0 0 316.416 40.35918367346938" height="40.35918367346938" width="316.416"><g><svg viewBox="0 0 316.416 40.35918367346938" height="40.35918367346938" width="316.416"><g><svg viewBox="0 0 316.416 40.35918367346938" height="40.35918367346938" width="316.416"><g><svg viewBox="0 0 316.416 40.35918367346938" height="40.35918367346938" width="316.416"><g id="SvgjsG1211"><svg viewBox="0 0 316.416 40.35918367346938" height="40.35918367346938" width="316.416" id="SvgjsSvg1210"><g><svg viewBox="0 0 316.416 40.35918367346938" height="40.35918367346938" width="316.416"><g transform="matrix(1,0,0,1,0,0)"><svg width="316.416" viewBox="0.75 -36.25 382.16 48.75" height="40.35918367346938" data-palette-color="url(#5786f31d-9968-4840-ac13-aef9d125f902)"></svg></g></svg></g></svg></g></svg></g></svg></g></svg></g></svg></g><g mask="url(&quot;#f2255135-3806-4441-9ab9-6360827a984f&quot;)"><g transform="matrix(3.596942891930349, 0, 0, 3.596942891930349, 23.304672798486138, 1)"><svg xmlns="http://www.w3.org/2000/svg" xmlns:xlink="http://www.w3.org/1999/xlink" version="1.1" x="0" y="0" viewBox="1 15.472 97.002 68.16900000000001" enable-background="new 0 0 100 100" xml:space="preserve" height="68.16900000000001" width="97.002" class="icon-none" data-fill-palette-color="accent" id="SvgjsSvg1208"></svg></g></g></svg></g><defs><mask id="SvgjsMask1207"></mask><linearGradient x1="0.054" x2="0.941" y1="0.5" y2="0.5" id="SvgjsLinearGradient1206"><stop stop-color="#0f3054" offset="0"></stop><stop stop-color="#3b8dcb" offset="0.498"></stop><stop stop-color="#0f3054" offset="1"></stop></linearGradient><mask></mask></defs></svg></g></mask></svg></g></mask><mask id="1cfe2ff8-e456-4f5b-9a4f-9c5494d5ffd0"><g id="SvgjsG1253"><svg viewBox="0 0 395.52 247.2" height="247.2" width="395.52"><g><svg></svg></g><g><svg viewBox="0 0 395.52 247.2" height="247.2" width="395.52"><g transform="matrix(1,0,0,1,39.55199999999999,103.42040816326531)"><svg viewBox="0 0 316.416 40.35918367346938" height="40.35918367346938" width="316.416"><g><svg viewBox="0 0 316.416 40.35918367346938" height="40.35918367346938" width="316.416"><g><svg viewBox="0 0 316.416 40.35918367346938" height="40.35918367346938" width="316.416"><g><svg viewBox="0 0 316.416 40.35918367346938" height="40.35918367346938" width="316.416"><g id="SvgjsG1252"><svg viewBox="0 0 316.416 40.35918367346938" height="40.35918367346938" width="316.416" id="SvgjsSvg1251"><g><svg viewBox="0 0 316.416 40.35918367346938" height="40.35918367346938" width="316.416"><g transform="matrix(1,0,0,1,0,0)"><svg width="316.416" viewBox="0.75 -36.25 382.16 48.75" height="40.35918367346938" data-palette-color="url(#5786f31d-9968-4840-ac13-aef9d125f902)"></svg></g></svg></g></svg></g></svg></g></svg></g></svg></g></svg></g><g mask="url(&quot;#f2255135-3806-4441-9ab9-6360827a984f&quot;)"><g transform="matrix(3.596942891930349, 0, 0, 3.596942891930349, 23.304672798486138, 1)"><svg xmlns="http://www.w3.org/2000/svg" xmlns:xlink="http://www.w3.org/1999/xlink" version="1.1" x="0" y="0" viewBox="1 15.472 97.002 68.16900000000001" enable-background="new 0 0 100 100" xml:space="preserve" height="68.16900000000001" width="97.002" class="icon-none" data-fill-palette-color="accent" id="SvgjsSvg1250"></svg></g></g></svg></g><defs><mask id="SvgjsMask1249"></mask><linearGradient x1="0.054" x2="0.941" y1="0.5" y2="0.5" id="SvgjsLinearGradient1247"><stop stop-color="#0f3054" offset="0"></stop><stop stop-color="#3b8dcb" offset="0.498"></stop><stop stop-color="#0f3054" offset="1"></stop></linearGradient><linearGradient x1="0" x2="1" y1="0.578" y2="0.595" id="SvgjsLinearGradient1246"><stop stop-color="#dede50" offset="0"></stop><stop stop-color="#559c49" offset="1"></stop></linearGradient><linearGradient x1="0.054" x2="0.941" y1="0.5" y2="0.5" id="SvgjsLinearGradient1245"><stop stop-color="#0f3054" offset="0"></stop><stop stop-color="#3b8dcb" offset="0.498"></stop><stop stop-color="#0f3054" offset="1"></stop></linearGradient><mask></mask></defs><mask id="SvgjsMask1244"><g id="SvgjsG1243"><svg viewBox="0 0 395.52 247.2" height="247.2" width="395.52"><g><svg></svg></g><g><svg viewBox="0 0 395.52 247.2" height="247.2" width="395.52"><g transform="matrix(1,0,0,1,39.55199999999999,103.42040816326531)"><svg viewBox="0 0 316.416 40.35918367346938" height="40.35918367346938" width="316.416"><g><svg viewBox="0 0 316.416 40.35918367346938" height="40.35918367346938" width="316.416"><g><svg viewBox="0 0 316.416 40.35918367346938" height="40.35918367346938" width="316.416"><g><svg viewBox="0 0 316.416 40.35918367346938" height="40.35918367346938" width="316.416"><g id="SvgjsG1242"><svg viewBox="0 0 316.416 40.35918367346938" height="40.35918367346938" width="316.416" id="SvgjsSvg1241"><g><svg viewBox="0 0 316.416 40.35918367346938" height="40.35918367346938" width="316.416"><g transform="matrix(1,0,0,1,0,0)"><svg width="316.416" viewBox="0.75 -36.25 382.16 48.75" height="40.35918367346938" data-palette-color="url(#5786f31d-9968-4840-ac13-aef9d125f902)"></svg></g></svg></g></svg></g></svg></g></svg></g></svg></g></svg></g><g mask="url(&quot;#f2255135-3806-4441-9ab9-6360827a984f&quot;)"><g transform="matrix(3.596942891930349, 0, 0, 3.596942891930349, 23.304672798486138, 1)"><svg xmlns="http://www.w3.org/2000/svg" xmlns:xlink="http://www.w3.org/1999/xlink" version="1.1" x="0" y="0" viewBox="1 15.472 97.002 68.16900000000001" enable-background="new 0 0 100 100" xml:space="preserve" height="68.16900000000001" width="97.002" class="icon-none" data-fill-palette-color="accent" id="SvgjsSvg1239"></svg></g></g></svg></g><defs><mask id="SvgjsMask1238"></mask><linearGradient x1="0.054" x2="0.941" y1="0.5" y2="0.5" id="SvgjsLinearGradient1237"><stop stop-color="#0f3054" offset="0"></stop><stop stop-color="#3b8dcb" offset="0.498"></stop><stop stop-color="#0f3054" offset="1"></stop></linearGradient><mask></mask></defs></svg></g></mask><mask id="SvgjsMask1236"><g id="SvgjsG1235"><svg viewBox="0 0 395.52 247.2" height="247.2" width="395.52"><g><svg></svg></g><g><svg viewBox="0 0 395.52 247.2" height="247.2" width="395.52"><g transform="matrix(1,0,0,1,39.55199999999999,103.42040816326531)"><svg viewBox="0 0 316.416 40.35918367346938" height="40.35918367346938" width="316.416"><g><svg viewBox="0 0 316.416 40.35918367346938" height="40.35918367346938" width="316.416"><g><svg viewBox="0 0 316.416 40.35918367346938" height="40.35918367346938" width="316.416"><g><svg viewBox="0 0 316.416 40.35918367346938" height="40.35918367346938" width="316.416"><g id="SvgjsG1234"><svg viewBox="0 0 316.416 40.35918367346938" height="40.35918367346938" width="316.416" id="SvgjsSvg1233"><g><svg viewBox="0 0 316.416 40.35918367346938" height="40.35918367346938" width="316.416"><g transform="matrix(1,0,0,1,0,0)"><svg width="316.416" viewBox="0.75 -36.25 382.16 48.75" height="40.35918367346938" data-palette-color="url(#5786f31d-9968-4840-ac13-aef9d125f902)"></svg></g></svg></g></svg></g></svg></g></svg></g></svg></g></svg></g><g mask="url(&quot;#f2255135-3806-4441-9ab9-6360827a984f&quot;)"><g transform="matrix(3.596942891930349, 0, 0, 3.596942891930349, 23.304672798486138, 1)"><svg xmlns="http://www.w3.org/2000/svg" xmlns:xlink="http://www.w3.org/1999/xlink" version="1.1" x="0" y="0" viewBox="1 15.472 97.002 68.16900000000001" enable-background="new 0 0 100 100" xml:space="preserve" height="68.16900000000001" width="97.002" class="icon-none" data-fill-palette-color="accent" id="SvgjsSvg1232"></svg></g></g></svg></g><defs><mask id="SvgjsMask1231"></mask><linearGradient x1="0.054" x2="0.941" y1="0.5" y2="0.5" id="SvgjsLinearGradient1230"><stop stop-color="#0f3054" offset="0"></stop><stop stop-color="#3b8dcb" offset="0.498"></stop><stop stop-color="#0f3054" offset="1"></stop></linearGradient><linearGradient x1="0" x2="1" y1="0.578" y2="0.595" id="SvgjsLinearGradient1229"><stop stop-color="#dede50" offset="0"></stop><stop stop-color="#559c49" offset="1"></stop></linearGradient><mask></mask></defs><mask id="SvgjsMask1228"><g id="SvgjsG1227"><svg viewBox="0 0 395.52 247.2" height="247.2" width="395.52"><g><svg></svg></g><g><svg viewBox="0 0 395.52 247.2" height="247.2" width="395.52"><g transform="matrix(1,0,0,1,39.55199999999999,103.42040816326531)"><svg viewBox="0 0 316.416 40.35918367346938" height="40.35918367346938" width="316.416"><g><svg viewBox="0 0 316.416 40.35918367346938" height="40.35918367346938" width="316.416"><g><svg viewBox="0 0 316.416 40.35918367346938" height="40.35918367346938" width="316.416"><g><svg viewBox="0 0 316.416 40.35918367346938" height="40.35918367346938" width="316.416"><g id="SvgjsG1226"><svg viewBox="0 0 316.416 40.35918367346938" height="40.35918367346938" width="316.416" id="SvgjsSvg1225"><g><svg viewBox="0 0 316.416 40.35918367346938" height="40.35918367346938" width="316.416"><g transform="matrix(1,0,0,1,0,0)"><svg width="316.416" viewBox="0.75 -36.25 382.16 48.75" height="40.35918367346938" data-palette-color="url(#5786f31d-9968-4840-ac13-aef9d125f902)"></svg></g></svg></g></svg></g></svg></g></svg></g></svg></g></svg></g><g mask="url(&quot;#f2255135-3806-4441-9ab9-6360827a984f&quot;)"><g transform="matrix(3.596942891930349, 0, 0, 3.596942891930349, 23.304672798486138, 1)"><svg xmlns="http://www.w3.org/2000/svg" xmlns:xlink="http://www.w3.org/1999/xlink" version="1.1" x="0" y="0" viewBox="1 15.472 97.002 68.16900000000001" enable-background="new 0 0 100 100" xml:space="preserve" height="68.16900000000001" width="97.002" class="icon-none" data-fill-palette-color="accent" id="SvgjsSvg1224"></svg></g></g></svg></g><defs><mask id="SvgjsMask1223"></mask><linearGradient x1="0.054" x2="0.941" y1="0.5" y2="0.5" id="SvgjsLinearGradient1222"><stop stop-color="#0f3054" offset="0"></stop><stop stop-color="#3b8dcb" offset="0.498"></stop><stop stop-color="#0f3054" offset="1"></stop></linearGradient><mask></mask></defs></svg></g></mask></svg></g></mask></svg></g></mask></svg><rect width="395.52" height="247.2" fill="none" stroke="none" visibility="hidden"></rect></g></svg></g></svg>